<svg width="105" height="40" viewBox="0 0 105 40" xmlns="http://www.w3.org/2000/svg"><g fill="none" fill-rule="evenodd"><g fill="#000"><path d="M92.462 32.435c-1.982 0-3.59-1.594-3.59-3.56 0-1.965 1.608-3.56 3.59-3.56 1.983 0 3.59 1.595 3.59 3.56 0 1.966-1.607 3.56-3.59 3.56m0-10.532c-3.854 0-6.98 3.1-6.98 6.923 0 3.824 3.126 6.923 6.98 6.923 3.852 0 6.978-3.1 6.978-6.924 0-3.822-3.126-6.923-6.978-6.923M84.308 25.153V22.24h-4.26v-3.645h-3.554v3.646h-2.812v2.913h2.812v5.686c0 2.93 1.446 4.89 5.137 4.89 1.427 0 2.678-.532 2.678-.532l-.432-2.854s-.7.213-1.56.213c-1.056 0-2.268-.462-2.268-1.94v-5.464h4.26M72.267 18.37c0 1.285-1.027 2.325-2.294 2.325-1.264 0-2.29-1.04-2.29-2.324 0-1.284 1.026-2.324 2.29-2.324 1.267 0 2.294 1.04 2.294 2.325M68.196 22.24h3.556v13.216h-3.556V22.24zM63.153 22.24l-3.483 9.617-3.48-9.616H52.63l4.788 13.216h4.5l4.787-13.215h-3.554M43.183 28.848l2.206-6.086 2.203 6.086h-4.41zm6.803 6.608h3.785L46.763 16.1h-2.746l-7.01 19.356h3.785l1.34-3.695h6.517l1.34 3.696z"/></g><g transform="translate(4 12.066)"><ellipse fill="#97CF26" cx="19.741" cy="19.988" rx="7.291" ry="7.394"/><ellipse fill="#CF6CF7" cx="6.036" cy="19.988" rx="3.394" ry="3.442"/><ellipse fill="#FF6163" cx="19.741" cy="6.089" rx="4.693" ry="4.759"/><ellipse fill="#0AF" cx="6.036" cy="6.089" rx="5.992" ry="6.077"/></g><path d="M24.577 3.708c0-.198-.05-.355-.152-.47-.1-.115-.283-.227-.545-.337-.51-.18-.894-.383-1.152-.61-.257-.228-.386-.547-.386-.957 0-.408.147-.74.44-.997.295-.256.67-.384 1.125-.384.483 0 .872.136 1.166.41.294.273.436.64.427 1.1l-.007.02h-.936c0-.257-.058-.452-.173-.585-.115-.134-.28-.2-.494-.2-.184 0-.328.06-.43.183-.103.122-.154.274-.154.456 0 .17.058.308.174.417.116.11.316.23.598.36.48.158.845.36 1.092.604.247.244.37.572.37.984 0 .427-.144.762-.433 1.006-.29.244-.673.366-1.152.366-.472 0-.875-.132-1.21-.395-.335-.263-.497-.664-.485-1.2l.007-.022h.94c0 .312.063.537.19.673.126.137.312.205.558.205.207 0 .363-.056.467-.17.103-.114.155-.266.155-.455zm3.953-.51V5h-.963V.023h1.664c.5 0 .895.147 1.187.44.292.292.438.676.438 1.15 0 .476-.146.86-.438 1.15-.292.29-.687.436-1.186.436h-.7zm0-.755h.7c.218 0 .382-.077.495-.232.113-.154.17-.35.17-.59 0-.244-.057-.445-.17-.604-.113-.158-.277-.237-.494-.237h-.7v1.663zm7.87.766c0 .585-.165 1.04-.495 1.37-.33.328-.77.492-1.32.492s-.987-.164-1.315-.492c-.328-.33-.492-.785-.492-1.37V1.82c0-.582.163-1.04.49-1.37.327-.333.765-.498 1.314-.498.55 0 .99.165 1.32.497.333.33.5.788.5 1.37v1.39zm-.96-1.4c0-.36-.073-.635-.22-.82-.147-.184-.36-.276-.638-.276-.28 0-.49.092-.632.275-.14.182-.212.456-.212.82v1.4c0 .368.07.645.214.83.142.184.353.276.634.276.28 0 .492-.092.637-.276.145-.185.217-.462.217-.83v-1.4zM42 5h-.963l-1.58-3.175-.02.003V5h-.963V.023h.964l1.58 3.18.02-.004V.022H42V5zm4.36-1.292c0-.198-.05-.355-.15-.47-.102-.115-.284-.227-.546-.337-.51-.18-.894-.383-1.152-.61-.257-.228-.386-.547-.386-.957 0-.408.147-.74.44-.997.295-.256.67-.384 1.125-.384.484 0 .873.136 1.167.41.294.273.436.64.427 1.1l-.007.02h-.936c0-.257-.057-.452-.172-.585-.115-.134-.28-.2-.494-.2-.184 0-.328.06-.43.183-.103.122-.154.274-.154.456 0 .17.058.308.174.417.116.11.316.23.598.36.48.158.845.36 1.092.604.247.244.37.572.37.984 0 .427-.144.762-.433 1.006-.288.244-.672.366-1.15.366-.473 0-.876-.132-1.21-.395-.336-.263-.498-.664-.486-1.2l.007-.022h.94c0 .312.064.537.19.673.127.137.313.205.56.205.207 0 .362-.056.466-.17.103-.114.155-.266.155-.455zm6.52-.5c0 .587-.164 1.043-.494 1.372-.33.328-.77.492-1.32.492s-.987-.164-1.316-.492c-.328-.33-.492-.785-.492-1.37V1.82c0-.582.164-1.04.49-1.37.328-.333.766-.498 1.315-.498.55 0 .99.165 1.32.497.333.33.498.788.498 1.37v1.39zm-.96-1.397c0-.36-.073-.635-.22-.82-.147-.184-.36-.276-.637-.276-.28 0-.49.092-.632.275-.14.182-.21.456-.21.82v1.4c0 .368.07.645.212.83.143.184.354.276.634.276s.493-.092.638-.276c.145-.185.217-.462.217-.83v-1.4zm4 1.194V5h-.965V.027h1.49c.494 0 .883.13 1.167.386.284.258.426.616.426 1.077 0 .257-.06.48-.18.67-.12.19-.292.34-.518.45.26.087.447.23.56.432.115.2.172.45.172.75v.364c0 .14.016.285.048.437.032.153.09.265.17.335V5h-.997c-.08-.073-.13-.192-.153-.357-.02-.165-.032-.33-.032-.494V3.8c0-.253-.052-.45-.157-.588-.104-.14-.254-.208-.45-.208h-.58zm0-.752h.518c.207 0 .365-.062.473-.186.11-.125.164-.3.164-.528 0-.233-.054-.417-.16-.554-.108-.137-.264-.205-.47-.205h-.525V2.25zm6.782.55h-1.52v1.446H63V5h-2.785V.023h2.78V.78H61.18v1.27h1.522v.752zM65.014 5V.023h1.535c.52 0 .948.195 1.288.583.34.39.51.887.51 1.496v.823c0 .61-.17 1.11-.51 1.496-.34.387-.77.58-1.29.58h-1.534zm.964-4.22v3.468h.57c.25 0 .45-.123.603-.37.153-.245.23-.563.23-.953v-.83c0-.385-.077-.7-.23-.947-.152-.246-.353-.37-.6-.37h-.572zM73.372 5V.023h1.425c.52 0 .924.114 1.214.34.29.227.435.566.435 1.017 0 .235-.053.444-.16.628-.105.183-.262.32-.47.408.28.057.486.19.62.4.137.21.205.455.205.735 0 .477-.14.838-.416 1.083-.276.245-.67.367-1.184.367h-1.668zm.964-2.205v1.453h.704c.21 0 .368-.06.475-.176.107-.117.16-.29.16-.52 0-.238-.048-.422-.146-.552-.1-.13-.252-.198-.46-.205h-.733zm0-.666h.506c.207-.006.366-.064.475-.175.11-.112.164-.274.164-.486 0-.238-.056-.412-.17-.524-.114-.11-.285-.167-.513-.167h-.46v1.35zm5.895.057h.02l.86-2.164h1.052L80.71 3.226V5h-.96V3.165L78.322.023h1.053l.855 2.164z" fill="#191919" opacity=".7"/></g></svg>
