<svg width="105" height="40" viewBox="0 0 105 40" xmlns="http://www.w3.org/2000/svg" xmlns:xlink="http://www.w3.org/1999/xlink"><defs><path id="a" d="M.008 23h58.93V.104H.01V23z"/></defs><g fill="none" fill-rule="evenodd"><path d="M47.938 21.78c-1.35 0-2.755.97-2.755.97v-.624c0-.136-.056-.19-.194-.19h-1.723c-.14 0-.222.08-.222.19V35.43c0 .138.056.22.195.22h1.75c.11 0 .193-.082.193-.22V24.044s.812-.508 1.798-.508c.94 0 1.68.46 1.68 1.402V35.43c0 .138.084.22.223.22h1.72c.14 0 .195-.11.195-.22V24.34c0-1.67-1.04-2.56-2.86-2.56M55.198 28.882c0-2.792.828-5.557 2.52-5.557.574 0 1.125.186 1.667.61v9.838c-.424.227-.958.437-1.534.437-1.84 0-2.652-2.152-2.652-5.328zm6.13-13.776h-1.72c-.14 0-.223.082-.223.192v6.712c-.66-.25-1.263-.382-1.75-.382-2.795 0-4.714 2.635-4.714 7.702 0 4.342 1.868 6.67 4.305 6.67 1.027 0 1.874-.58 2.495-1.125l.376.628c.063.11.115.146.242.146h.99c.11 0 .195-.082.195-.22V15.3c0-.137-.056-.192-.195-.192zM67.785 27.555c-.634 0-1.788.155-1.788.155s.015-.454.07-.89c.248-2.31.807-3.48 1.773-3.48.84 0 1.414 1.197 1.552 3.29.027.436.027.925.027.925h-1.635zm.138-5.9c-2.867 0-4.282 3.698-4.282 7.722 0 4.212 2.02 6.573 4.614 6.573 1.14 0 2.275-.443 3.02-.85.114-.063.135-.15.107-.26l-.217-.89c-.027-.11-.082-.163-.22-.163-.06 0-1 .27-1.916.27-2.124 0-3.098-1.86-3.098-4.332v-.6s1.055.143 1.69.143h4.005v-1.142c0-4.214-1.497-6.47-3.702-6.47z" fill="#000"/><g transform="translate(22 13)"><mask id="b" fill="#fff"><use xlink:href="#a"/></mask><path d="M16.243 20.494c-.493.47-1.084.716-1.615.716-.532 0-.942-.242-1.272-.69-.4-.546-.588-1.386-.588-2.316 0-1.472.55-2.983 1.72-2.983.578 0 1.213.187 1.755.612v4.662zm1.533-10.11c-.637-1.237-1.77-1.778-3.07-1.778-.834 0-2.136.315-3.006.7-.17.075-.278.142-.278.274 0 .078.04.168.084.246l.586 1.237c.06.14.157.172.237.172.085 0 .156-.04.234-.09.848-.534 1.47-.828 1.96-.828.652 0 1.094.426 1.366 1.066.254.596.353 1.42.353 2.373v.28c-.534-.33-1.46-.512-1.923-.512-2.487 0-3.828 2.33-3.828 4.822 0 2.685 1.567 4.654 3.45 4.654 1.05 0 2-.607 2.636-1.373 0 0 .34.796.383.892.046.094.093.13.22.13h1.007c.11 0 .194-.082.194-.22v-7.717c0-1.896-.096-3.343-.604-4.33zM58.716 8.933h-1.534c-.172 0-.26.09-.303.203-.098.252-.747 1.936-1.013 2.634-.19.498-.7 1.925-.7 1.925h-.06c0-.005-.375-1.038-.577-1.556-.164-.42-1.02-2.64-1.127-2.914-.058-.147-.122-.293-.342-.293h-1.68c-.184 0-.288.2-.23.324.06.124 2.738 6.135 2.738 6.135s-2.875 6.73-2.96 6.882c-.083.152.023.375.227.375h1.473c.25 0 .35-.13.424-.34.212-.583.527-1.396.973-2.652.295-.833.763-2.294.763-2.294h.05s.513 1.49.704 1.976c.48 1.23 1.096 2.84 1.16 3.01.07.177.164.3.336.3h1.67c.165 0 .24-.187.164-.35-.186-.384-1.772-4.183-2.872-6.68 0 0 2.857-6.217 2.912-6.37.056-.155.04-.317-.196-.317" fill="#000" mask="url(#b)"/><path d="M12.23.104h-1.935c-.17 0-.278.083-.303.203C9.968.427 7.09 9.08 6.882 9.8c-.15.51-.633 2.312-.75 2.745l-1-2.694C4.89 9.11 2.558 2.69 2.49 2.433c-.038-.14-.104-.316-.354-.316H.246c-.184 0-.29.2-.23.323.048.1 3.46 9.05 4.84 12.47v7.52c0 .138.056.22.194.22h1.79c.11 0 .194-.082.194-.22v-7.46C8.184 11.806 12.38.547 12.427.42c.055-.154.04-.316-.196-.316" fill="#F00" mask="url(#b)"/></g><path d="M25.914 3.21c0 .585-.166 1.04-.496 1.37-.33.328-.77.492-1.32.492s-.987-.164-1.315-.492c-.328-.33-.492-.785-.492-1.37V1.82c0-.582.164-1.04.49-1.37.328-.333.766-.498 1.315-.498.55 0 .99.165 1.32.497.333.33.5.788.5 1.37v1.39zm-.96-1.4c0-.36-.074-.635-.22-.82-.148-.184-.36-.276-.64-.276s-.49.092-.63.275c-.142.182-.213.456-.213.82v1.4c0 .368.072.645.215.83.142.184.353.276.634.276.28 0 .49-.092.636-.276.145-.185.217-.462.217-.83v-1.4zm3.997 1.194V5h-.963V.027h1.49c.495 0 .884.13 1.167.386.284.258.426.616.426 1.077 0 .257-.06.48-.18.67-.12.19-.292.34-.517.45.26.087.446.23.56.432.114.2.17.45.17.75v.364c0 .14.017.285.05.437.03.153.088.265.17.335V5h-.998c-.08-.073-.13-.192-.152-.357-.022-.165-.033-.33-.033-.494V3.8c0-.253-.052-.45-.157-.588-.105-.14-.255-.208-.45-.208h-.582zm0-.752h.52c.208 0 .365-.062.474-.186.108-.125.162-.3.162-.528 0-.233-.053-.417-.16-.554-.108-.137-.264-.205-.47-.205h-.525V2.25zM34.265 5h-.96V.023h.96V5zm5.557-.656c-.14.198-.345.37-.613.512-.268.144-.613.216-1.037.216-.538 0-.97-.157-1.294-.47-.325-.314-.487-.758-.487-1.335v-1.51c0-.575.157-1.02.472-1.334.316-.314.734-.47 1.253-.47.542 0 .95.127 1.227.383.276.257.41.622.4 1.096l-.007.02h-.906c0-.26-.058-.45-.172-.567-.113-.12-.285-.178-.516-.178-.248 0-.442.087-.58.26-.14.173-.21.434-.21.783v1.517c0 .356.07.62.213.793.14.173.343.26.605.26.187 0 .334-.022.44-.067.108-.044.19-.103.247-.176V3.072h-.76v-.666h1.724v1.938zM42.93 5h-.96V.023h.96V5zm5.75 0h-.963l-1.58-3.175-.02.003V5h-.964V.023h.964l1.58 3.18.02-.004V.022h.964V5zm4.436-1.077h-1.244L51.592 5h-1.005l1.41-4.977h1L54.406 5H53.4l-.284-1.077zm-1.046-.758h.848l-.414-1.58h-.02l-.414 1.58zM58.76.78h-1.168V5h-.967V.78h-1.138V.022h3.274V.78zM63.118 2.8h-1.52v1.446h1.82V5h-2.784V.023h2.778V.78h-1.814v1.27h1.52v.752zM65.43 5V.023h1.535c.52 0 .95.195 1.288.583.34.39.51.887.51 1.496v.823c0 .61-.17 1.11-.51 1.496-.34.387-.77.58-1.288.58H65.43zm.964-4.22v3.468h.57c.25 0 .45-.123.602-.37.153-.245.23-.563.23-.953v-.83c0-.385-.077-.7-.23-.947-.152-.246-.353-.37-.6-.37h-.572zM73.788 5V.023h1.425c.52 0 .924.114 1.213.34.29.227.434.566.434 1.017 0 .235-.053.444-.158.628-.106.183-.263.32-.47.408.278.057.484.19.62.4.135.21.203.455.203.735 0 .477-.138.838-.415 1.083-.277.245-.672.367-1.184.367h-1.668zm.964-2.205v1.453h.704c.21 0 .368-.06.475-.176.108-.117.16-.29.16-.52 0-.238-.048-.422-.146-.552-.098-.13-.25-.198-.458-.205h-.734zm0-.666h.505c.208-.006.366-.064.476-.175.11-.112.164-.274.164-.486 0-.238-.057-.412-.17-.524-.115-.11-.286-.167-.514-.167h-.46v1.35zm5.894.057h.02l.86-2.164h1.05l-1.45 3.203V5h-.962V3.165L78.74.023h1.052l.854 2.164z" fill="#191919" opacity=".7"/></g></svg>
